# This file uses centimeters as units for non-parametric coordinates.

mtllib Fuente_Lp.mtl
g default
v -1.162756 1.322437 -2.858813
v -1.105487 1.322437 -2.500138
v -0.940572 1.322437 -2.176474
v -0.683711 1.322437 -1.919613
v -0.360047 1.322437 -1.754698
v 0.000000 1.322437 -1.697872
v -1.162756 0.577683 -2.858812
v -1.105487 0.578990 -2.500138
v -0.940572 0.578990 -2.176474
v -0.683711 0.578990 -1.919613
v -0.360047 0.578990 -1.754698
v 0.000000 0.578990 -1.697872
v -1.162756 1.322437 -3.253785
v 0.000000 4.306873 -3.253784
v -0.345576 4.230892 -3.253784
v -0.525125 4.135865 -3.253784
v -0.641019 4.034154 -3.253784
v -0.794080 3.743620 -3.253784
v 1.162756 0.577683 -2.858812
v 0.000000 1.322437 -1.356835
v -0.462992 1.322437 -1.429969
v -0.879539 1.322437 -1.642210
v -1.210113 1.322437 -1.972784
v -1.422355 1.322437 -2.389331
v -1.494259 1.322437 -2.843318
v -1.494259 1.322437 -3.240412
v -1.494259 0.009290 -2.843318
v -1.422355 0.009290 -2.389331
v -1.210113 0.009290 -1.972784
v -0.879539 0.009290 -1.642210
v -0.462992 0.009290 -1.429968
v 0.000000 0.009290 -1.356835
v -1.494259 0.010138 -3.240412
v 0.000000 4.036341 -2.858727
v -0.196859 4.031268 -2.858727
v -0.338713 3.956587 -2.858727
v -0.451847 3.877539 -2.858727
v -0.646054 3.570214 -2.858727
v -0.946227 3.570214 -2.858727
v -0.945866 1.603654 -2.858802
v 0.000000 3.943982 -3.018208
v -0.142059 3.943982 -3.018208
v -0.261695 3.892092 -3.018208
v -0.363693 3.827825 -3.018208
v -0.586334 3.503508 -3.018208
v -0.862761 3.503508 -3.018208
v -0.862433 1.710708 -3.018289
v -0.957104 3.743620 -3.253784
v -1.163129 3.576375 -3.253784
v -1.163129 3.576375 -2.858727
v -0.748567 3.893175 -3.253784
v -0.566111 3.758109 -2.858727
v -0.484596 3.707470 -3.018208
v -1.163129 3.633717 -3.253784
v -1.163129 3.633717 -2.858727
v -0.949956 3.629668 -2.858727
v -0.696807 3.629668 -2.858727
v -0.628669 3.804418 -2.858727
v -0.516707 3.931237 -2.858727
v -0.402627 4.018055 -2.858727
v -0.247848 4.099712 -2.858727
v 0.000000 4.123786 -2.858727
v -1.182743 3.669425 -3.253784
v -1.182743 3.668960 -2.819079
v -1.182743 3.633717 -3.253784
v -1.182743 3.633253 -2.819734
v -1.203845 3.742772 -2.785308
v -1.203845 3.743620 -3.253784
v -1.203845 3.705050 -3.253784
v -1.203845 3.704202 -2.786016
v -1.203845 3.669425 -3.253784
v -1.203845 3.668577 -2.786669
v -1.223069 3.742323 -2.752215
v -1.223069 3.743620 -3.253784
v -1.223069 3.705050 -3.253784
v -1.223069 3.703753 -2.752922
v 1.162756 1.322437 -2.858812
v 1.105487 1.322437 -2.500138
v 0.940572 1.322437 -2.176474
v 0.683711 1.322437 -1.919613
v 0.360047 1.322437 -1.754698
v 1.105487 0.578990 -2.500138
v 0.940572 0.578990 -2.176474
v 0.683711 0.578990 -1.919613
v 0.360047 0.578990 -1.754698
v 1.162756 1.322437 -3.253785
v 0.646054 0.576376 -2.858703
v 0.345576 4.230892 -3.253784
v 0.525125 4.135865 -3.253784
v 0.641019 4.034154 -3.253784
v 0.794080 3.743620 -3.253784
v 0.462992 1.322437 -1.429969
v 0.879539 1.322437 -1.642210
v 1.210113 1.322437 -1.972784
v 1.422355 1.322437 -2.389331
v 1.494259 1.322437 -2.843318
v 1.494259 1.322437 -3.240412
v 1.494259 0.009290 -2.843318
v 1.422355 0.009290 -2.389331
v 1.210113 0.009290 -1.972784
v 0.879539 0.009290 -1.642210
v 0.462992 0.009290 -1.429968
v 1.494259 0.010138 -3.240412
v 0.196859 4.031268 -2.858727
v 0.338713 3.956587 -2.858727
v 0.451847 3.877539 -2.858727
v 0.646054 3.570214 -2.858727
v 0.946227 3.570214 -2.858727
v 0.945866 1.603654 -2.858802
v 0.142059 3.943982 -3.018208
v 0.261695 3.892092 -3.018208
v 0.363693 3.827825 -3.018208
v 0.586334 3.503508 -3.018208
v 0.862761 3.503508 -3.018208
v 0.862433 1.710708 -3.018289
v 0.957104 3.743620 -3.253784
v 1.163129 3.576375 -3.253784
v 1.163129 3.576375 -2.858727
v 0.748567 3.893175 -3.253784
v 0.566111 3.758109 -2.858727
v 0.484596 3.707470 -3.018208
v 1.163129 3.633717 -3.253784
v 1.163129 3.633717 -2.858727
v 0.949956 3.629668 -2.858727
v 0.696807 3.629668 -2.858727
v 0.628669 3.804418 -2.858727
v 0.516707 3.931237 -2.858727
v 0.402627 4.018055 -2.858727
v 0.247848 4.099712 -2.858727
v 1.182743 3.669425 -3.253784
v 1.182743 3.668960 -2.819079
v 1.182743 3.633717 -3.253784
v 1.182743 3.633253 -2.819734
v 1.203845 3.742772 -2.785308
v 1.203845 3.743620 -3.253784
v 1.203845 3.705050 -3.253784
v 1.203845 3.704202 -2.786016
v 1.203845 3.669425 -3.253784
v 1.203845 3.668577 -2.786669
v 1.223069 3.742323 -2.752215
v 1.223069 3.743620 -3.253784
v 1.223069 3.705050 -3.253784
v 1.223069 3.703753 -2.752922
v -0.162898 1.972995 -3.015533
v -0.144483 1.972995 -2.881643
v -0.092885 1.972995 -2.816941
v -0.018323 1.972995 -2.781034
v 0.064434 1.972995 -2.781034
v 0.138996 1.972995 -2.816941
v 0.190594 1.972995 -2.881642
v 0.209009 1.972995 -3.015533
v -0.330649 2.058468 -3.015533
v -0.295621 2.058468 -2.808858
v -0.197476 2.058468 -2.685787
v -0.055651 2.058468 -2.617488
v 0.101762 2.058468 -2.617488
v 0.243587 2.058468 -2.685787
v 0.341732 2.058468 -2.808858
v 0.376760 2.058468 -3.015533
v -0.463777 2.191596 -3.015533
v -0.415566 2.191596 -2.751096
v -0.280480 2.191596 -2.581704
v -0.085275 2.191596 -2.487698
v 0.131386 2.191596 -2.487698
v 0.326591 2.191596 -2.581704
v 0.461677 2.191596 -2.751096
v 0.509888 2.191596 -3.015533
v -0.549251 2.359347 -3.015533
v -0.492575 2.359347 -2.714010
v -0.333772 2.359347 -2.514878
v -0.104295 2.359347 -2.404368
v 0.150406 2.359347 -2.404367
v 0.379883 2.359347 -2.514878
v 0.538686 2.359347 -2.714010
v 0.595362 2.359347 -3.015533
v -0.578703 2.532300 -3.015533
v -0.519110 2.532300 -2.701232
v -0.352135 2.532300 -2.491851
v -0.110848 2.532300 -2.375654
v 0.156959 2.532300 -2.375654
v 0.398246 2.532300 -2.491851
v 0.565221 2.532300 -2.701232
v 0.624814 2.532300 -3.015533
v 0.023056 1.943542 -3.015533
v -0.213471 1.817150 -3.015533
v -0.190274 1.816375 -2.859591
v -0.383284 1.924381 -2.766642
v -0.426228 1.926750 -3.015533
v -0.124573 1.816375 -2.777205
v -0.258140 1.924381 -2.609717
v -0.029633 1.816375 -2.731483
v -0.077302 1.924381 -2.522630
v 0.075744 1.816375 -2.731483
v 0.123413 1.924381 -2.522629
v 0.170684 1.816375 -2.777205
v 0.304251 1.924381 -2.609716
v 0.236385 1.816375 -2.859591
v 0.429395 1.924381 -2.766642
v 0.259582 1.817150 -3.015533
v 0.472340 1.926750 -3.015533
v -0.537174 2.093410 -2.692532
v -0.594304 2.096646 -3.015533
v -0.364636 2.093410 -2.476176
v -0.115310 2.093410 -2.356107
v 0.161421 2.093410 -2.356107
v 0.410747 2.093410 -2.476176
v 0.583285 2.093410 -2.692532
v 0.640415 2.096646 -3.015533
v -0.636433 2.307404 -2.644732
v -0.701738 2.309741 -3.015532
v -0.433325 2.307404 -2.390042
v -0.139825 2.307404 -2.248700
v 0.185936 2.307404 -2.248699
v 0.479436 2.307404 -2.390042
v 0.682545 2.307404 -2.644732
v 0.747849 2.309741 -3.015532
v -0.667022 2.532300 -2.630002
v -0.734933 2.532300 -3.015533
v -0.454493 2.532300 -2.363498
v -0.147380 2.532300 -2.215600
v 0.193490 2.532300 -2.215600
v 0.500604 2.532300 -2.363498
v 0.713133 2.532300 -2.630001
v 0.781044 2.532300 -3.015533
v 0.023055 1.781034 -3.015533
v -0.951941 3.666421 -2.823250
v -0.949646 3.629387 -2.823844
v -0.728332 3.666625 -2.824787
v -0.696740 3.629596 -2.824789
v -0.667622 3.833255 -2.824786
v -0.628668 3.804418 -2.824788
v -0.557095 3.964674 -2.824786
v -0.516706 3.931236 -2.824788
v -0.442426 4.056330 -2.824786
v -0.402627 4.018054 -2.824788
v -0.279600 4.142331 -2.824786
v -0.247848 4.099711 -2.824788
v 0.000000 4.183270 -2.824786
v 0.000000 4.123785 -2.824788
v 0.951941 3.666421 -2.823250
v 0.949646 3.629387 -2.823844
v 0.728332 3.666625 -2.824787
v 0.696740 3.629596 -2.824789
v 0.667622 3.833255 -2.824786
v 0.628668 3.804418 -2.824788
v 0.557095 3.964674 -2.824786
v 0.516706 3.931236 -2.824788
v 0.442426 4.056330 -2.824786
v 0.402627 4.018054 -2.824788
v 0.279600 4.142331 -2.824786
v 0.247848 4.099711 -2.824788
v 0.000000 4.306871 -2.792367
v 0.000000 4.242617 -2.792370
v -0.345575 4.230890 -2.792367
v -0.311278 4.184853 -2.792370
v -0.525124 4.135863 -2.792367
v -0.482133 4.094518 -2.792370
v -0.641017 4.034153 -2.792367
v -0.597390 3.998034 -2.792370
v -0.748565 3.893174 -2.792367
v -0.706486 3.862025 -2.792370
v -0.793762 3.743578 -2.792370
v -0.956313 3.743198 -2.789609
v -0.953867 3.703181 -2.790248
v -0.759707 3.703549 -2.792371
v -0.951642 3.666206 -2.790839
v -0.728239 3.666582 -2.792373
v -0.667621 3.833254 -2.792372
v -0.557094 3.964674 -2.792372
v -0.442426 4.056329 -2.792372
v -0.279599 4.142330 -2.792372
v 0.000000 4.183269 -2.792372
v 0.311278 4.184853 -2.792370
v 0.345575 4.230890 -2.792367
v 0.482133 4.094518 -2.792370
v 0.525124 4.135863 -2.792367
v 0.597390 3.998034 -2.792370
v 0.641017 4.034153 -2.792367
v 0.706486 3.862025 -2.792370
v 0.748565 3.893174 -2.792367
v 0.793763 3.743578 -2.792370
v 0.759707 3.703549 -2.792371
v 0.953867 3.703181 -2.790248
v 0.956313 3.743198 -2.789609
v 0.951642 3.666206 -2.790839
v 0.728239 3.666583 -2.792373
v 0.667621 3.833254 -2.792372
v 0.557094 3.964674 -2.792372
v 0.442426 4.056329 -2.792372
v 0.279599 4.142330 -2.792372
v 0.000000 4.306870 -2.759269
v 0.000000 4.242616 -2.759272
v -0.345575 4.230889 -2.759269
v -0.311277 4.184852 -2.759272
v -0.525123 4.135862 -2.759269
v -0.482132 4.094517 -2.759272
v -0.641016 4.034152 -2.759269
v -0.597389 3.998033 -2.759272
v -0.748564 3.893174 -2.759269
v -0.706485 3.862024 -2.759272
v -0.793595 3.743557 -2.759273
v -0.955895 3.742975 -2.756517
v -0.953449 3.702959 -2.757155
v -0.759539 3.703528 -2.759274
v 0.311277 4.184852 -2.759272
v 0.345575 4.230889 -2.759269
v 0.482132 4.094517 -2.759272
v 0.525123 4.135862 -2.759269
v 0.597389 3.998033 -2.759272
v 0.641016 4.034152 -2.759269
v 0.706486 3.862024 -2.759272
v 0.748564 3.893174 -2.759269
v 0.793595 3.743557 -2.759273
v 0.759539 3.703528 -2.759274
v 0.953449 3.702959 -2.757155
v 0.955895 3.742975 -2.756517
v 0.205050 1.972995 -2.944977
v 0.369229 2.058468 -2.929327
v 0.499522 2.191596 -2.916908
v 0.583176 2.359347 -2.908934
v 0.612001 2.532300 -2.906186
v 0.766442 2.532300 -2.862879
v 0.733807 2.309238 -2.866717
v 0.628132 2.095950 -2.880929
v 0.463106 1.926240 -2.903126
v 0.254594 1.816983 -2.931175
v -0.210233 1.817042 -2.938051
v -0.420233 1.926419 -2.916237
v -0.586329 2.096194 -2.899029
v -0.692621 2.309415 -2.888043
v -0.725452 2.532300 -2.885252
v -0.570384 2.532300 -2.925876
v -0.541339 2.359347 -2.927660
v -0.457047 2.191596 -2.932837
v -0.325759 2.058468 -2.940901
v -0.160327 1.972995 -2.951061
v 1.494259 1.196446 -3.240412
v 1.494259 1.196364 -2.843318
v 1.422355 1.196364 -2.389331
v 1.210113 1.196364 -1.972784
v 0.879539 1.196364 -1.642210
v 0.462992 1.196364 -1.429969
v 0.000000 1.196364 -1.356835
v -0.462992 1.196364 -1.429969
v -0.879539 1.196364 -1.642210
v -1.210113 1.196364 -1.972784
v -1.422355 1.196364 -2.389331
v -1.494259 1.196364 -2.843318
v -1.494259 1.196446 -3.240412
v 1.494259 1.084715 -3.240412
v 1.494259 1.084561 -2.843318
v 1.422355 1.084561 -2.389331
v 1.210113 1.084561 -1.972784
v 0.879539 1.084561 -1.642210
v 0.462992 1.084561 -1.429969
v 0.000000 1.084561 -1.356835
v -0.462992 1.084561 -1.429969
v -0.879539 1.084561 -1.642210
v -1.210113 1.084561 -1.972784
v -1.422355 1.084561 -2.389331
v -1.494259 1.084561 -2.843318
v -1.494259 1.084715 -3.240412
v 1.494259 0.243771 -3.240412
v 1.494259 0.243074 -2.843318
v 1.422355 0.243074 -2.389331
v 1.210113 0.243074 -1.972784
v 0.879539 0.243074 -1.642210
v 0.462992 0.243074 -1.429968
v 0.000000 0.243074 -1.356835
v -0.462992 0.243074 -1.429968
v -0.879539 0.243074 -1.642210
v -1.210113 0.243074 -1.972784
v -1.422355 0.243074 -2.389331
v -1.494259 0.243074 -2.843318
v -1.494259 0.243771 -3.240412
v 1.494259 0.175421 -3.240412
v 1.494259 0.174680 -2.843318
v 1.422355 0.174680 -2.389331
v 1.210113 0.174680 -1.972784
v 0.879539 0.174680 -1.642210
v 0.462992 0.174680 -1.429968
v 0.000000 0.174680 -1.356835
v -0.462992 0.174680 -1.429968
v -0.879539 0.174680 -1.642210
v -1.210113 0.174680 -1.972784
v -1.422355 0.174680 -2.389331
v -1.494259 0.174680 -2.843318
v -1.494259 0.175421 -3.240412
v 1.494259 0.081686 -3.240412
v 1.494259 0.080884 -2.843318
v 1.422355 0.080884 -2.389331
v 1.210113 0.080884 -1.972784
v 0.879539 0.080884 -1.642210
v 0.462992 0.080884 -1.429968
v 0.000000 0.080884 -1.356835
v -0.462992 0.080884 -1.429968
v -0.879539 0.080884 -1.642210
v -1.210113 0.080884 -1.972784
v -1.422355 0.080884 -2.389331
v -1.494259 0.080884 -2.843318
v -1.494259 0.081686 -3.240412
v 1.494259 0.972984 -3.240412
v 1.494259 0.972758 -2.843318
v 1.422355 0.972758 -2.389331
v 1.210113 0.972758 -1.972784
v 0.879539 0.972758 -1.642210
v 0.462992 0.972758 -1.429969
v 0.000000 0.972758 -1.356835
v -0.462992 0.972758 -1.429969
v -0.879539 0.972758 -1.642210
v -1.210113 0.972758 -1.972784
v -1.422355 0.972758 -2.389331
v -1.494259 0.972758 -2.843318
v -1.494259 0.972984 -3.240412
vt 0.320934 0.701654
vt 0.320934 0.637875
vt 0.502498 0.637875
vt 0.502498 0.701654
vt 0.320934 0.573006
vt 0.502498 0.573006
vt 0.320934 0.508137
vt 0.502498 0.508137
vt 0.320934 0.443267
vt 0.502498 0.443267
vt 0.320934 0.378228
vt 0.502498 0.378228
vt 0.872016 0.500029
vt 0.769723 0.500029
vt 0.769487 0.450336
vt 0.871837 0.450336
vt 0.769487 0.400637
vt 0.871837 0.400637
vt 0.769487 0.350939
vt 0.871837 0.350939
vt 0.769487 0.301240
vt 0.871837 0.301240
vt 0.769487 0.251371
vt 0.871837 0.251371
vt 0.502498 0.753743
vt 0.321052 0.753743
vt 0.020813 0.068241
vt 0.015536 0.068324
vt 0.015536 0.002712
vt 0.020813 0.002726
vt 0.001221 0.807529
vt 0.152279 0.599187
vt 0.160054 0.648447
vt 0.050293 0.497201
vt 0.094575 0.519763
vt 0.129717 0.554906
vt 0.517184 0.274295
vt 0.507036 0.210052
vt 0.555524 0.210052
vt 0.563299 0.259312
vt 0.546634 0.332094
vt 0.585862 0.303594
vt 0.621004 0.338736
vt 0.592503 0.377964
vt 0.650302 0.407414
vt 0.665286 0.361299
vt 0.713296 0.417392
vt 0.714358 0.369134
vt 0.765386 0.369135
vt 0.765385 0.417392
vt 0.243832 0.656706
vt 0.235041 0.656706
vt 0.245436 0.609426
vt 0.251735 0.614119
vt 0.258437 0.584862
vt 0.264094 0.590743
vt 0.272353 0.569006
vt 0.277294 0.574974
vt 0.291640 0.554292
vt 0.295902 0.560049
vt 0.312190 0.525923
vt 0.317666 0.526259
vt 0.317587 0.552790
vt 0.312110 0.548131
vt 0.931488 0.642349
vt 0.931145 0.669289
vt 0.906274 0.661785
vt 0.906274 0.642349
vt 0.925711 0.690538
vt 0.902535 0.679230
vt 0.919879 0.708497
vt 0.897820 0.695036
vt 0.888681 0.716512
vt 0.910764 0.729193
vt 0.892664 0.793248
vt 0.869696 0.780511
vt 0.871833 0.742752
vt 0.894984 0.752246
vt 0.741623 0.925562
vt 0.716997 0.934691
vt 0.716997 0.665638
vt 0.741624 0.680281
vt 0.544855 0.664200
vt 0.507036 0.664207
vt 0.507036 0.418927
vt 0.982769 0.598060
vt 0.931730 0.598060
vt 0.931730 0.290088
vt 0.982757 0.290088
vt 0.312281 0.489365
vt 0.317559 0.489367
vt 0.289811 0.078447
vt 0.319486 0.077604
vt 0.319435 0.385575
vt 0.289761 0.347500
vt 0.575324 0.708566
vt 0.558779 0.692103
vt 0.589280 0.717356
vt 0.605649 0.724452
vt 0.625085 0.724449
vt 0.982769 0.605905
vt 0.931730 0.605905
vt 0.319486 0.069759
vt 0.290321 0.070313
vt 0.248743 0.078447
vt 0.255686 0.070313
vt 0.246364 0.046404
vt 0.237805 0.052740
vt 0.231046 0.029054
vt 0.222172 0.036400
vt 0.215438 0.017176
vt 0.206694 0.025586
vt 0.194262 0.006004
vt 0.187286 0.015368
vt 0.160353 0.014674
vt 0.160353 0.002710
vt 0.058596 0.059091
vt 0.053711 0.059176
vt 0.053711 0.002712
vt 0.058596 0.002717
vt 0.168884 0.870332
vt 0.163998 0.870332
vt 0.163463 0.838436
vt 0.168531 0.838750
vt 0.163492 0.803834
vt 0.168558 0.808157
vt 0.191356 0.799851
vt 0.187410 0.794521
vt 0.209336 0.784729
vt 0.204761 0.779203
vt 0.221875 0.769041
vt 0.216639 0.763595
vt 0.233642 0.746764
vt 0.227810 0.742419
vt 0.231104 0.708510
vt 0.239243 0.708510
vt 0.029954 0.063619
vt 0.025080 0.063699
vt 0.025080 0.002712
vt 0.029954 0.002721
vt 0.750830 0.763860
vt 0.745955 0.763858
vt 0.745628 0.729349
vt 0.750687 0.729654
vt 0.745680 0.698783
vt 0.750738 0.703089
vt 0.772420 0.695807
vt 0.768483 0.690490
vt 0.791028 0.680881
vt 0.786463 0.675368
vt 0.804228 0.665113
vt 0.799003 0.659680
vt 0.816587 0.641737
vt 0.810769 0.637403
vt 0.816370 0.599150
vt 0.824490 0.599150
vt 0.065939 0.053751
vt 0.063255 0.059086
vt 0.063255 0.002712
vt 0.065938 0.002712
vt 0.004108 0.059176
vt 0.001221 0.063610
vt 0.001221 0.002712
vt 0.004108 0.002712
vt 0.578614 0.132153
vt 0.581244 0.136681
vt 0.581244 0.197765
vt 0.578614 0.197765
vt 0.263672 0.007140
vt 0.266303 0.002612
vt 0.266303 0.068127
vt 0.263673 0.068127
vt 0.769723 0.002712
vt 0.872016 0.002712
vt 0.871837 0.052405
vt 0.769487 0.052405
vt 0.769487 0.102104
vt 0.871837 0.102104
vt 0.871837 0.151803
vt 0.769487 0.151803
vt 0.769487 0.201501
vt 0.871837 0.201501
vt 0.001272 0.487868
vt 0.001272 0.385575
vt 0.071964 0.488047
vt 0.319435 0.487868
vt 0.874468 0.194067
vt 0.874468 0.145658
vt 0.934586 0.145658
vt 0.934586 0.194067
vt 0.874468 0.221860
vt 0.934586 0.221860
vt 0.874468 0.242957
vt 0.934586 0.242956
vt 0.874469 0.267216
vt 0.934587 0.267216
vt 0.591332 0.204372
vt 0.591440 0.264868
vt 0.569137 0.264868
vt 0.569093 0.204750
vt 0.011270 0.068323
vt 0.005993 0.068241
vt 0.005993 0.002726
vt 0.011270 0.002712
vt 0.001234 0.736836
vt 0.001221 0.489365
vt 0.152279 0.697707
vt 0.094574 0.777131
vt 0.050293 0.799694
vt 0.129717 0.741988
vt 0.517184 0.145809
vt 0.563299 0.160793
vt 0.546634 0.088010
vt 0.585862 0.116511
vt 0.592503 0.042141
vt 0.621004 0.081369
vt 0.650302 0.012691
vt 0.665286 0.058806
vt 0.713296 0.002713
vt 0.714358 0.050970
vt 0.765385 0.002712
vt 0.765386 0.050970
vt 0.320934 0.313188
vt 0.502498 0.313188
vt 0.502498 0.248319
vt 0.320934 0.248319
vt 0.320934 0.183449
vt 0.502498 0.183449
vt 0.320934 0.118580
vt 0.502498 0.118580
vt 0.320934 0.054801
vt 0.502498 0.054801
vt 0.321052 0.002712
vt 0.502498 0.002712
vt 0.251735 0.699293
vt 0.245436 0.703985
vt 0.264094 0.722668
vt 0.258437 0.728550
vt 0.277294 0.738437
vt 0.272353 0.744406
vt 0.295902 0.753363
vt 0.291640 0.759120
vt 0.312110 0.765280
vt 0.317587 0.760621
vt 0.317666 0.787152
vt 0.312190 0.787488
vt 0.030945 0.347500
vt 0.906274 0.622914
vt 0.931145 0.615409
vt 0.902535 0.605468
vt 0.925711 0.594160
vt 0.897820 0.589663
vt 0.919879 0.576201
vt 0.888681 0.568187
vt 0.910764 0.555506
vt 0.894984 0.532452
vt 0.871833 0.541946
vt 0.869696 0.504187
vt 0.892664 0.491450
vt 0.083110 0.343671
vt 0.058484 0.334542
vt 0.058483 0.089261
vt 0.083110 0.074617
vt 0.967554 0.250097
vt 0.941274 0.261512
vt 0.941274 0.002696
vt 0.967554 0.014111
vt 0.743112 0.664164
vt 0.705293 0.664171
vt 0.743022 0.418883
vt 0.625198 0.264867
vt 0.625198 0.203784
vt 0.982769 0.607396
vt 0.982769 0.915367
vt 0.931730 0.915367
vt 0.931741 0.607396
vt 0.317559 0.824045
vt 0.312281 0.824046
vt 0.001221 0.077604
vt 0.030896 0.078447
vt 0.934586 0.288596
vt 0.874469 0.288604
vt 0.691379 0.692078
vt 0.674841 0.708548
vt 0.660887 0.717343
vt 0.644521 0.724445
vt 0.931730 0.923212
vt 0.982769 0.923212
vt 0.001221 0.069759
vt 0.030386 0.070313
vt 0.065020 0.070313
vt 0.071964 0.078447
vt 0.074342 0.046404
vt 0.082901 0.052740
vt 0.089660 0.029054
vt 0.098534 0.036400
vt 0.105268 0.017176
vt 0.114013 0.025586
vt 0.126444 0.006004
vt 0.133420 0.015368
vt 0.049053 0.059176
vt 0.044167 0.059092
vt 0.044167 0.002717
vt 0.049053 0.002712
vt 0.163998 0.546689
vt 0.168884 0.546689
vt 0.168531 0.578271
vt 0.163463 0.578585
vt 0.168558 0.608864
vt 0.163492 0.613186
vt 0.191356 0.617170
vt 0.187410 0.622500
vt 0.209336 0.632292
vt 0.204761 0.637818
vt 0.221875 0.647980
vt 0.216639 0.653425
vt 0.233642 0.670257
vt 0.227810 0.674601
vt 0.034624 0.002711
vt 0.039498 0.002791
vt 0.039498 0.063689
vt 0.034624 0.063698
vt 0.745955 0.434442
vt 0.750830 0.434441
vt 0.750687 0.468646
vt 0.745628 0.468951
vt 0.750738 0.495211
vt 0.745680 0.499517
vt 0.772420 0.502493
vt 0.768483 0.507810
vt 0.791028 0.517419
vt 0.786463 0.522932
vt 0.804228 0.533187
vt 0.799003 0.538620
vt 0.816587 0.556563
vt 0.810769 0.560897
vt 0.268444 0.002638
vt 0.271128 0.007973
vt 0.271127 0.059012
vt 0.268444 0.059012
vt 0.254128 0.002655
vt 0.257016 0.007089
vt 0.257015 0.063552
vt 0.254128 0.063552
vt 0.627829 0.199256
vt 0.627829 0.264867
vt 0.258900 0.002648
vt 0.261531 0.007176
vt 0.261530 0.068164
vt 0.258900 0.068164
vt 0.091751 0.213308
vt 0.102092 0.210886
vt 0.115076 0.243608
vt 0.102594 0.248930
vt 0.111813 0.206359
vt 0.121542 0.195946
vt 0.148971 0.212474
vt 0.132402 0.232832
vt 0.126497 0.182710
vt 0.157663 0.188146
vt 0.126288 0.168528
vt 0.157561 0.162578
vt 0.121091 0.155394
vt 0.148402 0.138440
vt 0.111384 0.145243
vt 0.131308 0.118237
vt 0.102391 0.141351
vt 0.091100 0.138787
vt 0.101157 0.102873
vt 0.115311 0.108831
vt 0.132975 0.273252
vt 0.119408 0.281578
vt 0.177206 0.226990
vt 0.155574 0.255944
vt 0.188888 0.193023
vt 0.188687 0.157146
vt 0.176272 0.123515
vt 0.154126 0.094638
vt 0.117427 0.069853
vt 0.133181 0.079353
vt 0.154387 0.299802
vt 0.140478 0.310405
vt 0.206268 0.240169
vt 0.180610 0.277229
vt 0.220525 0.197430
vt 0.219721 0.152193
vt 0.205311 0.109336
vt 0.178506 0.073330
vt 0.138035 0.040674
vt 0.154436 0.052879
vt 0.161581 0.334439
vt 0.175835 0.322938
vt 0.234930 0.253231
vt 0.204351 0.296150
vt 0.249962 0.201527
vt 0.249962 0.147718
vt 0.233269 0.096558
vt 0.202733 0.053539
vt 0.175874 0.029510
vt 0.158778 0.016272
vt 0.087114 0.176072
vt 0.643564 0.153050
vt 0.651128 0.124783
vt 0.660653 0.128401
vt 0.652229 0.154719
vt 0.660985 0.158126
vt 0.676387 0.136907
vt 0.689951 0.152463
vt 0.668658 0.165975
vt 0.697129 0.171395
vt 0.672795 0.176231
vt 0.697522 0.191449
vt 0.673034 0.187343
vt 0.690825 0.210529
vt 0.669186 0.197726
vt 0.677744 0.226546
vt 0.661747 0.205831
vt 0.653845 0.209188
vt 0.663662 0.234768
vt 0.652895 0.239537
vt 0.644457 0.211494
vt 0.663434 0.098627
vt 0.673296 0.104172
vt 0.693975 0.118328
vt 0.711822 0.140421
vt 0.721251 0.167017
vt 0.721997 0.195118
vt 0.712905 0.221842
vt 0.695873 0.244551
vt 0.677505 0.258107
vt 0.666084 0.265308
vt 0.679165 0.075262
vt 0.689038 0.082225
vt 0.712922 0.101172
vt 0.734113 0.129538
vt 0.745974 0.162854
vt 0.746448 0.198362
vt 0.735680 0.232141
vt 0.715379 0.261083
vt 0.694259 0.279142
vt 0.682632 0.288117
vt 0.705040 0.063351
vt 0.694921 0.055812
vt 0.731333 0.085672
vt 0.755641 0.119401
vt 0.769219 0.159302
vt 0.769219 0.201393
vt 0.757383 0.241597
vt 0.734309 0.275944
vt 0.699022 0.306966
vt 0.711059 0.297251
vt 0.640648 0.182327
vt 0.802672 0.706026
vt 0.790979 0.728976
vt 0.769657 0.722057
vt 0.784652 0.692949
vt 0.790979 0.779858
vt 0.802672 0.802809
vt 0.784652 0.815886
vt 0.769657 0.786778
vt 0.820886 0.687812
vt 0.807896 0.669954
vt 0.820886 0.821023
vt 0.807896 0.838881
vt 0.843837 0.676118
vt 0.837050 0.655255
vt 0.843837 0.832717
vt 0.837050 0.853579
vt 0.001221 0.001221
vt 0.001221 0.001221
vt 0.001221 0.001221
vt 0.001221 0.001221
vt 0.867499 0.650714
vt 0.867499 0.672088
vt 0.001221 0.001221
vt 0.001221 0.001221
vt 0.001221 0.001221
vt 0.001221 0.001221
vt 0.001221 0.001221
vt 0.001221 0.001221
vt 0.001221 0.001221
vt 0.001221 0.001221
vt 0.001221 0.001221
vt 0.001221 0.001221
vt 0.001221 0.001221
vt 0.001221 0.001221
vt 0.867499 0.836747
vt 0.867499 0.858121
vt 0.001221 0.001221
vt 0.001221 0.001221
vt 0.001221 0.001221
vt 0.001221 0.001221
vt 0.786949 0.754417
vt 0.764715 0.754417
vt 0.984220 0.404891
vt 0.989548 0.407591
vt 0.989450 0.436761
vt 0.984677 0.436788
vt 0.989339 0.471395
vt 0.984695 0.471389
vt 0.989340 0.497056
vt 0.984696 0.497057
vt 0.989340 0.520201
vt 0.984697 0.520201
vt 0.989341 0.539814
vt 0.984697 0.539814
vt 0.989341 0.563757
vt 0.984697 0.563757
vt 0.989341 0.597825
vt 0.984698 0.597825
vt 0.989548 0.788059
vt 0.984220 0.790759
vt 0.984677 0.758862
vt 0.989450 0.758889
vt 0.984695 0.724261
vt 0.989339 0.724255
vt 0.989340 0.698594
vt 0.984696 0.698594
vt 0.989340 0.675449
vt 0.984697 0.675449
vt 0.989341 0.655836
vt 0.984697 0.655836
vt 0.989341 0.631894
vt 0.984697 0.631894
vt 0.874468 0.097249
vt 0.934586 0.097249
vt 0.874468 0.069456
vt 0.934586 0.069456
vt 0.874468 0.048359
vt 0.934586 0.048360
vt 0.874469 0.024100
vt 0.934587 0.024100
vt 0.615001 0.197765
vt 0.615110 0.137270
vt 0.637350 0.137648
vt 0.637305 0.197765
vt 0.874469 0.002712
vt 0.934586 0.002720
vt 0.993764 0.002687
vt 0.998190 0.005588
vt 0.998661 0.037169
vt 0.994226 0.037196
vt 0.998776 0.067762
vt 0.994342 0.067761
vt 0.998777 0.092025
vt 0.994343 0.092026
vt 0.998778 0.115519
vt 0.994344 0.115519
vt 0.998778 0.135603
vt 0.994344 0.135603
vt 0.998779 0.160797
vt 0.994345 0.160797
vt 0.998779 0.199458
vt 0.994345 0.199458
vt 0.998190 0.393328
vt 0.993764 0.396228
vt 0.994226 0.361720
vt 0.998661 0.361747
vt 0.994343 0.331155
vt 0.998777 0.331154
vt 0.998778 0.306891
vt 0.994344 0.306890
vt 0.998779 0.283397
vt 0.994344 0.283397
vt 0.998779 0.263313
vt 0.994345 0.263313
vt 0.998779 0.238119
vt 0.994345 0.238119
vt 0.939114 0.097249
vt 0.939114 0.145658
vt 0.984220 0.246467
vt 0.984220 0.203153
vt 0.988748 0.203153
vt 0.988749 0.246467
vt 0.939115 0.069456
vt 0.984221 0.272909
vt 0.988749 0.272908
vt 0.939115 0.048360
vt 0.984221 0.293473
vt 0.988750 0.293473
vt 0.939115 0.024100
vt 0.984222 0.317328
vt 0.988750 0.317328
vt 0.615167 0.132742
vt 0.637372 0.133119
vt 0.988935 0.366725
vt 0.984407 0.366764
vt 0.984223 0.340199
vt 0.988751 0.340195
vt 0.989365 0.403615
vt 0.984847 0.400967
vt 0.939115 0.002724
vt 0.984221 0.159839
vt 0.988749 0.159839
vt 0.939114 0.194067
vt 0.984221 0.133397
vt 0.988749 0.133397
vt 0.939115 0.221860
vt 0.984222 0.112832
vt 0.988750 0.112833
vt 0.939115 0.242956
vt 0.984223 0.088978
vt 0.988751 0.088978
vt 0.939115 0.267215
vt 0.988752 0.066111
vt 0.984223 0.066106
vt 0.984407 0.039541
vt 0.988935 0.039580
vt 0.569070 0.200222
vt 0.591275 0.199844
vt 0.984847 0.005338
vt 0.989365 0.002690
vt 0.939115 0.288592
vt 0.485078 0.002712
vt 0.485066 0.054801
vt 0.485066 0.118580
vt 0.485066 0.183449
vt 0.485066 0.248319
vt 0.485066 0.313188
vt 0.485066 0.378228
vt 0.485066 0.443267
vt 0.485066 0.508137
vt 0.485066 0.573006
vt 0.485066 0.637875
vt 0.485066 0.701654
vt 0.485078 0.753743
vt 0.469629 0.002712
vt 0.469608 0.054801
vt 0.469608 0.118580
vt 0.469608 0.183449
vt 0.469608 0.248319
vt 0.469608 0.313188
vt 0.469608 0.378228
vt 0.469608 0.443267
vt 0.469608 0.508137
vt 0.469608 0.573006
vt 0.469608 0.637875
vt 0.469608 0.701654
vt 0.469629 0.753743
vt 0.353355 0.002712
vt 0.353258 0.054801
vt 0.353258 0.118580
vt 0.353258 0.183449
vt 0.353258 0.248319
vt 0.353258 0.313188
vt 0.353258 0.378228
vt 0.353258 0.443267
vt 0.353258 0.508137
vt 0.353258 0.573006
vt 0.353258 0.637875
vt 0.353258 0.701654
vt 0.353355 0.753743
vt 0.343905 0.002712
vt 0.343802 0.054801
vt 0.343802 0.118580
vt 0.343802 0.183449
vt 0.343802 0.248319
vt 0.343802 0.313188
vt 0.343802 0.378228
vt 0.343802 0.443267
vt 0.343802 0.508137
vt 0.343802 0.573006
vt 0.343802 0.637875
vt 0.343802 0.701654
vt 0.343905 0.753743
vt 0.330945 0.002712
vt 0.330833 0.054801
vt 0.330833 0.118580
vt 0.330833 0.183449
vt 0.330833 0.248319
vt 0.330833 0.313188
vt 0.330833 0.378228
vt 0.330833 0.443267
vt 0.330833 0.508137
vt 0.330833 0.573006
vt 0.330833 0.637875
vt 0.330833 0.701654
vt 0.330945 0.753743
vt 0.454181 0.002712
vt 0.454149 0.054801
vt 0.454149 0.118580
vt 0.454149 0.183449
vt 0.454149 0.248319
vt 0.454149 0.313188
vt 0.454149 0.378228
vt 0.454149 0.443267
vt 0.454149 0.508137
vt 0.454149 0.573006
vt 0.454149 0.637875
vt 0.454149 0.701654
vt 0.454181 0.753743
vn -0.996445 0.000000 0.084251
vn -0.950641 0.000000 0.310293
vn -0.950641 0.000000 0.310293
vn -0.996448 0.000000 0.084205
vn -0.809017 0.000000 0.587786
vn -0.809017 0.000000 0.587786
vn -0.587786 0.000000 0.809017
vn -0.587786 0.000000 0.809017
vn -0.308621 0.000001 0.951185
vn -0.308621 0.000000 0.951185
vn 0.000000 0.000001 1.000000
vn 0.000000 0.000000 1.000000
vn 0.987492 0.000000 -0.157671
vn 0.987492 0.000000 -0.157671
vn 0.950882 0.000000 -0.309554
vn 0.950938 0.000000 -0.309383
vn 0.809017 0.000000 -0.587785
vn 0.809017 0.000000 -0.587785
vn 0.587785 0.000000 -0.809017
vn 0.587785 0.000000 -0.809017
vn 0.308501 0.000000 -0.951224
vn 0.308501 0.000000 -0.951224
vn 0.000000 0.000000 -1.000000
vn 0.000000 0.000000 -1.000000
vn -1.000000 0.000000 0.000000
vn -1.000000 0.000000 0.000000
vn -1.000000 0.000000 0.000000
vn -1.000000 0.000000 0.000000
vn -1.000000 0.000000 0.000000
vn -1.000000 0.000000 0.000000
vn 0.000000 0.999998 -0.001795
vn 0.000384 1.000000 -0.000622
vn 0.000091 1.000000 -0.001035
vn 0.000230 0.999991 -0.004259
vn 0.000473 1.000000 -0.000427
vn 0.000416 1.000000 -0.000573
vn 0.000000 1.000000 0.000000
vn 0.000000 1.000000 -0.000000
vn 0.000000 1.000000 -0.000000
vn 0.000000 1.000000 0.000000
vn 0.000000 1.000000 0.000000
vn 0.000000 1.000000 0.000000
vn 0.000000 1.000000 -0.000000
vn 0.000000 1.000000 -0.000000
vn 0.000000 1.000000 -0.000000
vn 0.000000 1.000000 -0.000000
vn 0.000000 1.000000 0.000000
vn 0.000000 1.000000 0.000000
vn 0.000000 1.000000 0.000000
vn 0.000000 1.000000 0.000000
vn 0.000000 -0.000053 1.000000
vn 0.000000 -0.000053 1.000000
vn 0.000018 -0.000051 1.000000
vn 0.000015 -0.000052 1.000000
vn 0.000032 -0.000045 1.000000
vn 0.000030 -0.000046 1.000000
vn 0.000042 -0.000038 1.000000
vn 0.000042 -0.000038 1.000000
vn 0.000036 -0.000032 1.000000
vn 0.000034 -0.000032 1.000000
vn 0.015042 -0.010876 0.999828
vn 0.014962 -0.010331 0.999835
vn 0.006067 -0.000785 0.999981
vn 0.006836 -0.000881 0.999976
vn -0.000000 -0.870349 0.492436
vn 0.204011 -0.832091 0.515756
vn 0.163423 -0.843057 0.512394
vn -0.000000 -0.870349 0.492436
vn 0.428694 -0.743729 0.512922
vn 0.416094 -0.749677 0.514636
vn 0.564173 -0.647037 0.512885
vn 0.548189 -0.661426 0.511863
vn 0.718864 -0.478172 0.504566
vn 0.721574 -0.474573 0.504095
vn 0.000000 -0.922551 0.385876
vn 0.000000 -0.922551 0.385876
vn 0.426353 -0.756840 0.495395
vn 0.384439 -0.783119 0.488806
vn 0.886029 0.000143 0.463630
vn 0.886029 0.000143 0.463630
vn 0.886029 0.000143 0.463630
vn 0.886029 0.000143 0.463630
vn -0.000000 -0.000044 1.000000
vn 0.000000 -0.000045 1.000000
vn 0.000000 -0.000045 1.000000
vn -1.000000 -0.000161 0.000000
vn -1.000000 -0.000161 0.000000
vn -1.000000 -0.000165 0.000000
vn -1.000000 -0.000165 0.000000
vn 0.015892 -0.016618 0.999736
vn 0.015892 -0.016618 0.999736
vn -0.000001 -0.000036 1.000000
vn -0.000001 -0.000037 1.000000
vn -0.000016 0.000009 1.000000
vn -0.000001 -0.000038 1.000000
vn 0.000000 0.000000 1.000000
vn 0.000000 0.000000 1.000000
vn 0.000000 0.000000 1.000000
vn 0.000000 0.000000 1.000000
vn -0.000001 0.000000 1.000000
vn -1.000000 0.000000 0.000000
vn -1.000000 0.000000 0.000000
vn -0.000001 0.000000 1.000000
vn -0.000000 0.000000 1.000000
vn 0.000000 0.000000 1.000000
vn 0.000000 0.000000 1.000000
vn -0.000001 0.000000 1.000000
vn -0.000001 0.000000 1.000000
vn -0.000001 0.000000 1.000000
vn -0.000000 0.000000 1.000000
vn 0.000001 0.000000 1.000000
vn 0.000001 0.000000 1.000000
vn 0.000001 0.000000 1.000000
vn 0.000001 0.000000 1.000000
vn -0.000000 0.000000 1.000000
vn -0.000000 0.000000 1.000000
vn -1.000000 0.000000 0.000000
vn -1.000000 0.000000 0.000000
vn -1.000000 0.000000 0.000000
vn -1.000000 0.000000 0.000000
vn 0.017615 -0.016611 0.999707
vn 0.017615 -0.016611 0.999707
vn 0.010997 -0.010768 0.999882
vn 0.011539 -0.011246 0.999870
vn 0.002448 -0.002646 0.999994
vn 0.002844 -0.003078 0.999991
vn 0.000034 -0.000025 1.000000
vn 0.000035 -0.000024 1.000000
vn 0.000029 -0.000030 1.000000
vn 0.000029 -0.000030 1.000000
vn 0.000025 -0.000034 1.000000
vn 0.000024 -0.000035 1.000000
vn 0.000014 -0.000038 1.000000
vn 0.000010 -0.000039 1.000000
vn 0.000000 -0.000040 1.000000
vn 0.000000 -0.000040 1.000000
vn -1.000000 0.000000 0.000000
vn -1.000000 0.000000 0.000000
vn -1.000000 0.000000 0.000000
vn -1.000000 0.000000 0.000000
vn 0.016614 -0.016622 0.999724
vn 0.016614 -0.016622 0.999724
vn 0.012853 -0.010586 0.999861
vn 0.013165 -0.011087 0.999852
vn 0.004014 -0.001845 0.999990
vn 0.004600 -0.002114 0.999987
vn 0.000030 -0.000022 1.000000
vn 0.000031 -0.000021 1.000000
vn 0.000026 -0.000026 1.000000
vn 0.000025 -0.000026 1.000000
vn 0.000021 -0.000030 1.000000
vn 0.000021 -0.000031 1.000000
vn 0.000012 -0.000034 1.000000
vn 0.000010 -0.000035 1.000000
vn -0.000000 -0.000036 1.000000
vn -0.000000 -0.000036 1.000000
vn 0.011270 -0.999936 -0.000560
vn 0.011270 -0.999936 -0.000560
vn 0.011270 -0.999936 -0.000560
vn 0.011270 -0.999936 -0.000560
vn 0.007960 -0.999967 -0.001456
vn 0.007960 -0.999967 -0.001456
vn 0.007960 -0.999967 -0.001456
vn 0.007960 -0.999967 -0.001456
vn -0.004760 0.999965 0.006938
vn -0.001921 0.999996 0.002123
vn -0.001518 0.999998 0.001426
vn -0.009779 0.999950 0.002211
vn 0.009770 -0.999950 -0.002214
vn 0.009770 -0.999950 -0.002214
vn 0.009770 -0.999950 -0.002214
vn 0.009770 -0.999950 -0.002214
vn -0.987492 0.000000 -0.157671
vn -0.987492 0.000000 -0.157671
vn -0.950938 0.000000 -0.309383
vn -0.950882 0.000000 -0.309555
vn -0.809017 0.000000 -0.587785
vn -0.809017 0.000000 -0.587785
vn -0.587785 0.000000 -0.809017
vn -0.587785 0.000000 -0.809017
vn -0.308501 0.000000 -0.951224
vn -0.308501 0.000000 -0.951224
vn 0.000038 0.000120 1.000000
vn 0.000025 0.000067 1.000000
vn 0.000030 0.000110 1.000000
vn -0.000060 0.000001 1.000000
vn 0.309647 0.950852 0.000006
vn -0.000000 1.000000 0.000006
vn -0.000000 1.000000 0.000007
vn 0.309647 0.950852 0.000007
vn 0.554263 0.832342 0.000006
vn 0.554263 0.832342 0.000008
vn 0.735679 0.677331 0.000005
vn 0.735679 0.677331 0.000007
vn 0.884943 0.465699 0.000166
vn 0.884964 0.465659 0.000237
vn 0.001062 0.999998 0.001451
vn 0.000973 0.999999 0.001023
vn 0.001163 0.999999 0.000502
vn 0.001277 0.999999 0.000713
vn 1.000000 0.000000 0.000000
vn 1.000000 0.000000 0.000000
vn 1.000000 0.000000 0.000000
vn 1.000000 0.000000 0.000000
vn 0.000000 0.999973 -0.007290
vn 0.000000 0.999973 -0.007290
vn -0.000439 0.999999 -0.001480
vn -0.001667 0.999996 -0.002232
vn -0.010415 0.999932 -0.005307
vn -0.001606 0.999996 -0.002211
vn 0.000000 1.000000 -0.000000
vn 0.000000 1.000000 -0.000000
vn 0.000000 1.000000 -0.000000
vn 0.000000 1.000000 -0.000000
vn 0.000000 1.000000 -0.000000
vn 0.000000 1.000000 -0.000000
vn 0.000000 1.000000 0.000000
vn 0.000000 1.000000 0.000000
vn 0.000000 1.000000 0.000000
vn 0.000000 1.000000 0.000000
vn 0.000000 1.000000 0.000000
vn 0.000000 1.000000 0.000000
vn 0.308621 0.000001 0.951185
vn 0.308621 0.000000 0.951185
vn 0.587786 0.000000 0.809017
vn 0.587786 0.000000 0.809017
vn 0.809017 0.000000 0.587786
vn 0.809017 0.000000 0.587786
vn 0.950641 0.000000 0.310293
vn 0.950641 0.000000 0.310293
vn 0.996445 0.000000 0.084251
vn 0.996449 0.000000 0.084205
vn 1.000000 0.000000 0.000000
vn 1.000000 0.000000 0.000000
vn -0.000015 -0.000052 1.000000
vn -0.000018 -0.000051 1.000000
vn -0.000031 -0.000046 1.000000
vn -0.000032 -0.000045 1.000000
vn -0.000040 -0.000038 1.000000
vn -0.000041 -0.000038 1.000000
vn -0.000034 -0.000032 1.000000
vn -0.000036 -0.000032 1.000000
vn -0.006837 -0.000881 0.999976
vn -0.006068 -0.000785 0.999981
vn -0.014962 -0.010331 0.999835
vn -0.015043 -0.010876 0.999828
vn -0.000001 -0.000038 1.000000
vn -0.163423 -0.843057 0.512394
vn -0.204011 -0.832091 0.515755
vn -0.416094 -0.749677 0.514635
vn -0.428694 -0.743729 0.512921
vn -0.548189 -0.661426 0.511863
vn -0.564173 -0.647037 0.512885
vn -0.718863 -0.478172 0.504566
vn -0.721574 -0.474573 0.504095
vn -0.384439 -0.783119 0.488806
vn -0.426353 -0.756840 0.495395
vn 0.000000 -0.922551 0.385876
vn 0.000000 -0.922551 0.385876
vn -0.886029 0.000143 0.463629
vn -0.886029 0.000143 0.463629
vn -0.886029 0.000143 0.463629
vn -0.886029 0.000143 0.463629
vn 0.000000 0.830294 0.557326
vn 0.000000 0.830294 0.557326
vn 0.000000 0.830294 0.557326
vn 0.000000 0.830294 0.557326
vn 0.000000 -0.000045 1.000000
vn 0.000000 -0.000044 1.000000
vn 0.000000 -0.000045 1.000000
vn 0.001518 0.999998 0.001426
vn 0.001921 0.999996 0.002123
vn 1.000000 -0.000165 0.000000
vn 1.000000 -0.000161 0.000000
vn 1.000000 -0.000161 0.000000
vn 1.000000 -0.000165 0.000000
vn -0.015892 -0.016618 0.999736
vn -0.015892 -0.016618 0.999736
vn -0.000001 -0.000037 1.000000
vn -0.000001 -0.000036 1.000000
vn 0.957002 0.290083 0.000491
vn 0.956972 0.290181 0.000344
vn 0.000000 0.000000 1.000000
vn 0.000000 0.000000 1.000000
vn -0.000000 0.000000 1.000000
vn -0.000001 0.000000 1.000000
vn 1.000000 0.000000 0.000000
vn 1.000000 0.000000 0.000000
vn 0.000001 0.000000 1.000000
vn 0.000000 0.000000 1.000000
vn 0.000000 0.000000 1.000000
vn 0.000000 0.000000 1.000000
vn 0.000001 0.000000 1.000000
vn 0.000001 0.000000 1.000000
vn 0.000002 0.000000 1.000000
vn 0.000002 0.000000 1.000000
vn 0.000001 0.000000 1.000000
vn 0.000000 0.000000 1.000000
vn -0.000000 0.000000 1.000000
vn -0.000001 0.000000 1.000000
vn 1.000000 0.000000 0.000000
vn 1.000000 0.000000 0.000000
vn 1.000000 0.000000 0.000000
vn 1.000000 0.000000 0.000000
vn -0.017615 -0.016611 0.999707
vn -0.017615 -0.016611 0.999707
vn -0.011539 -0.011246 0.999870
vn -0.010997 -0.010768 0.999882
vn -0.002844 -0.003078 0.999991
vn -0.002448 -0.002646 0.999994
vn -0.000033 -0.000025 1.000000
vn -0.000034 -0.000024 1.000000
vn -0.000026 -0.000030 1.000000
vn -0.000025 -0.000030 1.000000
vn -0.000022 -0.000034 1.000000
vn -0.000022 -0.000035 1.000000
vn -0.000013 -0.000038 1.000000
vn -0.000010 -0.000039 1.000000
vn 1.000000 0.000000 0.000000
vn 1.000000 0.000000 0.000000
vn 1.000000 0.000000 0.000000
vn 1.000000 0.000000 0.000000
vn -0.016614 -0.016622 0.999724
vn -0.016614 -0.016622 0.999724
vn -0.013165 -0.011087 0.999852
vn -0.012853 -0.010586 0.999861
vn -0.004598 -0.002114 0.999987
vn -0.004012 -0.001845 0.999990
vn -0.000029 -0.000022 1.000000
vn -0.000029 -0.000021 1.000000
vn -0.000025 -0.000026 1.000000
vn -0.000025 -0.000026 1.000000
vn -0.000020 -0.000030 1.000000
vn -0.000020 -0.000031 1.000000
vn -0.000012 -0.000034 1.000000
vn -0.000010 -0.000035 1.000000
vn -0.011270 -0.999936 -0.000560
vn -0.011270 -0.999936 -0.000560
vn -0.011270 -0.999936 -0.000560
vn -0.011270 -0.999936 -0.000560
vn -0.007960 -0.999967 -0.001456
vn -0.007960 -0.999967 -0.001456
vn -0.007960 -0.999967 -0.001456
vn -0.007960 -0.999967 -0.001456
vn 0.004760 0.999965 0.006938
vn 0.009779 0.999950 0.002211
vn -0.009770 -0.999950 -0.002214
vn -0.009770 -0.999950 -0.002214
vn -0.009770 -0.999950 -0.002214
vn -0.009770 -0.999950 -0.002214
vn -0.318104 -0.947849 0.019793
vn -0.332399 -0.941928 0.047773
vn -0.613453 -0.783551 0.098607
vn -0.609014 -0.792410 0.034474
vn -0.325870 -0.931033 0.164276
vn -0.235113 -0.925872 0.295774
vn -0.389687 -0.780617 0.488653
vn -0.554820 -0.780540 0.287981
vn -0.083247 -0.927025 0.365642
vn -0.139079 -0.780616 0.609340
vn 0.083246 -0.927026 0.365641
vn 0.139077 -0.780616 0.609341
vn 0.235113 -0.925872 0.295774
vn 0.389688 -0.780616 0.488653
vn 0.322354 -0.931941 0.166055
vn 0.551923 -0.780472 0.293676
vn 0.331973 -0.942097 0.047409
vn 0.328530 -0.944169 0.024780
vn 0.612186 -0.789309 0.047114
vn 0.612824 -0.784074 0.098361
vn -0.813626 -0.564742 0.138127
vn -0.819297 -0.570850 0.053687
vn -0.514099 -0.565788 0.644660
vn -0.731788 -0.565560 0.380301
vn -0.183480 -0.565788 0.803877
vn 0.183479 -0.565789 0.803877
vn 0.514099 -0.565788 0.644659
vn 0.727928 -0.565480 0.387754
vn 0.820006 -0.567847 0.071698
vn 0.813212 -0.565356 0.138054
vn -0.941134 -0.295658 0.163868
vn -0.951808 -0.299304 0.066929
vn -0.595319 -0.297197 0.746505
vn -0.847143 -0.297026 0.440595
vn -0.212467 -0.297197 0.930877
vn 0.212467 -0.297197 0.930877
vn 0.595318 -0.297197 0.746505
vn 0.842647 -0.296964 0.449176
vn 0.950672 -0.297358 0.088324
vn 0.940987 -0.296085 0.163941
vn -0.986632 -0.146689 0.071000
vn -0.974388 -0.146103 0.170944
vn -0.616505 -0.149272 0.773071
vn -0.877206 -0.149022 0.456402
vn -0.220029 -0.149271 0.964005
vn 0.220027 -0.149270 0.964005
vn 0.616504 -0.149270 0.773072
vn 0.872541 -0.148993 0.465268
vn 0.974384 -0.145966 0.171086
vn 0.984830 -0.146289 0.093329
vn -0.000024 -0.998004 0.063158
vn 0.367699 0.929750 -0.019054
vn 0.601283 0.798025 -0.040193
vn 0.611672 0.784139 -0.104797
vn 0.376565 0.924452 -0.059898
vn 0.343044 0.923094 -0.173837
vn 0.561661 0.777670 -0.282430
vn 0.391936 0.777714 -0.491474
vn 0.235610 0.925460 -0.296669
vn 0.139880 0.777714 -0.612857
vn 0.083260 0.926901 -0.365953
vn -0.139880 0.777714 -0.612857
vn -0.083260 0.926901 -0.365954
vn -0.391936 0.777714 -0.491474
vn -0.235609 0.925460 -0.296670
vn -0.558783 0.777598 -0.288276
vn -0.340783 0.923303 -0.177141
vn -0.376977 0.924307 -0.059534
vn -0.610665 0.784969 -0.104465
vn -0.605527 0.793998 -0.053894
vn -0.371099 0.928218 -0.026392
vn 0.814983 0.575717 -0.065976
vn 0.812275 0.564255 -0.147732
vn 0.738856 0.562189 -0.371532
vn 0.515607 0.562244 -0.646553
vn 0.184019 0.562243 -0.806238
vn -0.184018 0.562244 -0.806238
vn -0.515608 0.562245 -0.646552
vn -0.735020 0.562100 -0.379196
vn -0.811584 0.565281 -0.147614
vn -0.816008 0.571693 -0.085430
vn 0.946415 0.311830 -0.084026
vn 0.936060 0.305357 -0.174784
vn 0.850662 0.305614 -0.427755
vn 0.593651 0.305655 -0.744415
vn 0.211873 0.305655 -0.928270
vn -0.211872 0.305655 -0.928270
vn -0.593651 0.305655 -0.744415
vn -0.846202 0.305551 -0.436555
vn -0.935830 0.306013 -0.174864
vn -0.944936 0.309340 -0.106791
vn 0.969297 0.164860 -0.182443
vn 0.981942 0.166521 -0.089776
vn 0.880732 0.167848 -0.442875
vn 0.614641 0.167873 -0.770737
vn 0.219363 0.167873 -0.961092
vn -0.219363 0.167872 -0.961093
vn -0.614642 0.167871 -0.770736
vn -0.876102 0.167810 -0.451980
vn -0.979594 0.165939 -0.113402
vn -0.969284 0.164751 -0.182607
vn -0.000137 0.997071 -0.076476
vn -0.000000 0.000000 -1.000000
vn -0.000000 0.000000 -1.000000
vn -0.000000 0.000000 -1.000000
vn -0.000000 0.000000 -1.000000
vn 0.000000 0.000000 -1.000000
vn 0.000000 0.000000 -1.000000
vn 0.000000 0.000000 -1.000000
vn 0.000000 0.000000 -1.000000
vn -0.000002 0.000000 -1.000000
vn -0.000002 0.000000 -1.000000
vn 0.000002 0.000000 -1.000000
vn 0.000002 0.000000 -1.000000
vn -0.000004 -0.000001 -1.000000
vn -0.000004 -0.000001 -1.000000
vn 0.000004 -0.000001 -1.000000
vn 0.000004 -0.000001 -1.000000
vn 0.000000 1.000000 -0.000000
vn 0.000000 1.000000 -0.000000
vn 0.000000 1.000000 -0.000001
vn 0.000000 1.000000 -0.000001
vn -0.000004 -0.000003 -1.000000
vn -0.000004 -0.000003 -1.000000
vn 0.000000 1.000000 -0.000000
vn 0.000000 1.000000 0.000000
vn 0.000000 1.000000 0.000000
vn 0.000000 1.000000 -0.000000
vn 0.000000 1.000000 -0.000000
vn 0.000000 1.000000 -0.000000
vn 0.000000 1.000000 -0.000000
vn 0.000000 1.000000 -0.000000
vn 0.000000 1.000000 -0.000001
vn 0.000000 1.000000 -0.000001
vn 0.000000 1.000000 0.000000
vn 0.000000 1.000000 0.000000
vn 0.000004 -0.000003 -1.000000
vn 0.000004 -0.000003 -1.000000
vn 0.000000 1.000000 0.000000
vn 0.000000 1.000000 0.000000
vn 0.000000 1.000000 0.000000
vn 0.000000 1.000000 0.000000
vn 0.000000 0.000000 -1.000000
vn 0.000000 0.000000 -1.000000
vn -0.017868 -0.999731 -0.014755
vn -0.017868 -0.999732 -0.014755
vn -0.008524 -0.999915 -0.009836
vn -0.008482 -0.999916 -0.009813
vn 0.474123 -0.880448 -0.004240
vn 0.473698 -0.880677 -0.004241
vn 0.858616 -0.512619 -0.000717
vn 0.858614 -0.512622 -0.000717
vn 0.686883 -0.726768 -0.000034
vn 0.686883 -0.726768 -0.000034
vn 0.530990 -0.847378 -0.000031
vn 0.530991 -0.847377 -0.000031
vn 0.253989 -0.967207 -0.000030
vn 0.253991 -0.967207 -0.000030
vn -0.000000 -1.000000 -0.000028
vn -0.000000 -1.000000 -0.000028
vn 0.017868 -0.999732 -0.014755
vn 0.017868 -0.999731 -0.014755
vn 0.008482 -0.999916 -0.009813
vn 0.008524 -0.999915 -0.009836
vn -0.473698 -0.880677 -0.004241
vn -0.474123 -0.880448 -0.004240
vn -0.858616 -0.512618 -0.000717
vn -0.858614 -0.512622 -0.000717
vn -0.686883 -0.726768 -0.000033
vn -0.686883 -0.726768 -0.000033
vn -0.530990 -0.847378 -0.000030
vn -0.530992 -0.847377 -0.000030
vn -0.253990 -0.967207 -0.000030
vn -0.253991 -0.967206 -0.000030
vn -0.309647 0.950852 0.000006
vn -0.309647 0.950852 0.000007
vn -0.554263 0.832342 0.000006
vn -0.554263 0.832342 0.000008
vn -0.735679 0.677331 0.000005
vn -0.735679 0.677331 0.000007
vn -0.884944 0.465698 0.000167
vn -0.884965 0.465658 0.000237
vn -0.000973 0.999999 0.001023
vn -0.001062 0.999998 0.001451
vn -0.001277 0.999999 0.000713
vn -0.001163 0.999999 0.000502
vn -0.956973 0.290178 0.000345
vn -0.957002 0.290080 0.000491
vn -0.010382 -0.999867 -0.012572
vn -0.010382 -0.999867 -0.012572
vn -0.004753 -0.999953 -0.008427
vn -0.004774 -0.999953 -0.008442
vn 0.507314 -0.861754 -0.003563
vn 0.505711 -0.862696 -0.003566
vn 0.867156 -0.498036 -0.000841
vn 0.867157 -0.498035 -0.000841
vn 0.703754 -0.710444 -0.000032
vn 0.703752 -0.710446 -0.000032
vn 0.539180 -0.842191 -0.000034
vn 0.539182 -0.842189 -0.000034
vn 0.275793 -0.961217 -0.000039
vn 0.275789 -0.961218 -0.000039
vn 0.000000 -1.000000 -0.000038
vn 0.000000 -1.000000 -0.000038
vn 0.010382 -0.999867 -0.012572
vn 0.010382 -0.999867 -0.012572
vn 0.004773 -0.999953 -0.008434
vn 0.004752 -0.999953 -0.008419
vn -0.505717 -0.862692 -0.003551
vn -0.507310 -0.861757 -0.003548
vn -0.867156 -0.498037 -0.000838
vn -0.867157 -0.498035 -0.000838
vn -0.703755 -0.710443 -0.000031
vn -0.703753 -0.710445 -0.000031
vn -0.539181 -0.842190 -0.000035
vn -0.539183 -0.842188 -0.000035
vn -0.275793 -0.961217 -0.000041
vn -0.275789 -0.961218 -0.000041
vn -0.309648 0.950851 0.000026
vn -0.000000 1.000000 0.000021
vn 0.293634 -0.955918 -0.000041
vn -0.000000 -1.000000 -0.000037
vn -0.000000 -1.000000 -0.000037
vn 0.293631 -0.955919 -0.000041
vn -0.554263 0.832341 0.000037
vn 0.546728 -0.837311 -0.000039
vn 0.546727 -0.837311 -0.000039
vn -0.735680 0.677330 0.000035
vn 0.719593 -0.694397 -0.000041
vn 0.719593 -0.694397 -0.000041
vn -0.885263 0.465089 0.001218
vn 0.875886 -0.482516 -0.001279
vn 0.875887 -0.482514 -0.001279
vn -0.002307 0.999971 0.007322
vn -0.002898 0.999989 0.003714
vn -0.001083 -0.999968 -0.007971
vn -0.001079 -0.999968 -0.007967
vn 0.541793 -0.840503 -0.003869
vn 0.539950 -0.841689 -0.003870
vn -0.003675 -0.999931 -0.011185
vn -0.003675 -0.999931 -0.011185
vn -0.957413 0.288711 0.002523
vn -0.293635 -0.955917 -0.000036
vn -0.293632 -0.955918 -0.000036
vn 0.309647 0.950852 0.000025
vn -0.546729 -0.837310 -0.000038
vn -0.546728 -0.837310 -0.000038
vn 0.554262 0.832342 0.000036
vn -0.719593 -0.694396 -0.000034
vn -0.719593 -0.694397 -0.000034
vn 0.735679 0.677330 0.000034
vn -0.875886 -0.482517 -0.001264
vn -0.875888 -0.482513 -0.001264
vn 0.885263 0.465090 0.001223
vn -0.539950 -0.841688 -0.003862
vn -0.541794 -0.840503 -0.003860
vn 0.001079 -0.999968 -0.007967
vn 0.001083 -0.999968 -0.007971
vn 0.002898 0.999989 0.003714
vn 0.002307 0.999971 0.007322
vn 0.003675 -0.999931 -0.011185
vn 0.003675 -0.999931 -0.011185
vn 0.957412 0.288714 0.002537
vn 1.000000 0.000000 0.000000
vn 1.000000 0.000000 0.000000
vn 0.996449 0.000000 0.084198
vn 0.996449 0.000000 0.084198
vn 0.950641 0.000000 0.310293
vn 0.950641 0.000000 0.310293
vn 0.809017 0.000000 0.587786
vn 0.809017 0.000000 0.587786
vn 0.587785 0.000000 0.809017
vn 0.587785 0.000000 0.809017
vn 0.308621 0.000000 0.951185
vn 0.308621 0.000000 0.951185
vn 0.000000 0.000001 1.000000
vn 0.000000 0.000000 1.000000
vn -0.308621 0.000000 0.951185
vn -0.308621 0.000000 0.951185
vn -0.587785 0.000000 0.809017
vn -0.587785 0.000000 0.809017
vn -0.809017 0.000000 0.587786
vn -0.809017 0.000000 0.587786
vn -0.950641 0.000000 0.310293
vn -0.950641 0.000000 0.310293
vn -0.996449 0.000000 0.084198
vn -0.996449 0.000000 0.084198
vn -1.000000 0.000000 0.000000
vn -1.000000 0.000000 0.000000
vn 1.000000 0.000000 -0.000000
vn 0.996449 0.000000 0.084198
vn 0.950641 0.000000 0.310293
vn 0.809017 0.000000 0.587786
vn 0.587785 0.000000 0.809017
vn 0.308621 0.000000 0.951185
vn 0.000000 0.000001 1.000000
vn -0.308621 0.000000 0.951185
vn -0.587785 0.000000 0.809017
vn -0.809017 0.000000 0.587786
vn -0.950641 0.000000 0.310293
vn -0.996449 0.000000 0.084198
vn -1.000000 0.000000 0.000000
vn 1.000000 0.000000 0.000000
vn 1.000000 0.000000 -0.000000
vn 0.996450 0.000000 0.084188
vn 0.996446 0.000000 0.084234
vn 0.950641 0.000000 0.310293
vn 0.950641 0.000000 0.310293
vn 0.809017 0.000000 0.587786
vn 0.809017 0.000000 0.587786
vn 0.587786 0.000000 0.809017
vn 0.587786 0.000000 0.809017
vn 0.308621 0.000000 0.951185
vn 0.308621 0.000000 0.951185
vn 0.000000 0.000000 1.000000
vn 0.000000 0.000000 1.000000
vn -0.308621 0.000000 0.951185
vn -0.308621 0.000000 0.951185
vn -0.587786 0.000000 0.809017
vn -0.587786 0.000000 0.809017
vn -0.809017 0.000000 0.587786
vn -0.809017 0.000000 0.587786
vn -0.950641 -0.000000 0.310293
vn -0.950641 0.000000 0.310293
vn -0.996446 -0.000000 0.084234
vn -0.996450 0.000000 0.084188
vn -1.000000 0.000000 0.000000
vn -1.000000 0.000000 -0.000000
vn 1.000000 0.000000 0.000000
vn 0.996450 0.000000 0.084191
vn 0.950641 -0.000000 0.310293
vn 0.809017 -0.000000 0.587786
vn 0.587786 -0.000000 0.809017
vn 0.308621 0.000000 0.951185
vn 0.000000 0.000000 1.000000
vn -0.308621 0.000000 0.951185
vn -0.587786 -0.000000 0.809017
vn -0.809017 -0.000001 0.587786
vn -0.950641 -0.000000 0.310293
vn -0.996450 0.000000 0.084191
vn -1.000000 0.000000 -0.000000
s 1
g Lp2
usemtl Fuente_Lp1:initialShadingGroup
f 27/1/1 28/2/2 399/676/3 400/677/4
f 28/2/2 29/5/5 398/675/6 399/676/3
f 398/675/6 29/5/5 30/7/7 397/674/8
f 30/7/7 31/9/9 396/673/10 397/674/8
f 31/9/9 32/11/11 395/672/12 396/673/10
s 2
f 7/13/13 1/14/14 2/15/15 8/16/16
f 2/15/15 3/17/17 9/18/18 8/16/16
f 9/18/18 3/17/17 4/19/19 10/20/20
f 10/20/20 4/19/19 5/21/21 11/22/22
f 5/21/21 6/23/23 12/24/24 11/22/22
s 1
f 401/678/25 33/26/26 27/1/1 400/677/4
s off
f 76/27/27 73/28/28 74/29/29 75/30/30
s 3
f 19/31/31 11/32/32 12/33/33
f 8/34/34 9/35/35 19/31/31
f 19/31/31 9/35/35 10/36/36 11/32/32
s 4
f 21/37/37 20/38/38 6/39/39 5/40/40
f 22/41/41 21/37/37 5/40/40 4/42/42
f 3/43/43 23/44/44 22/41/41 4/42/42
f 24/45/45 23/44/44 3/43/43 2/46/46
f 25/47/47 24/45/45 2/46/46 1/48/48
f 25/47/47 1/48/48 13/49/49 26/50/50
s 5
f 292/51/51 291/52/52 293/53/53 294/54/54
f 293/53/53 295/55/55 296/56/56 294/54/54
f 295/55/55 297/57/57 298/58/58 296/56/56
f 297/57/57 299/59/59 300/60/60 298/58/58
f 302/61/61 303/62/62 304/63/63 301/64/64
s 7
f 34/65/65 35/66/66 42/67/67 41/68/68
f 35/66/66 36/69/69 43/70/70 42/67/67
f 36/69/69 37/71/71 44/72/72 43/70/70
f 53/73/73 44/72/72 37/71/71 52/74/74
f 39/75/75 46/76/76 45/77/77 38/78/78
s off
f 46/79/79 39/80/80 40/81/81 47/82/82
s 8
f 45/83/83 46/84/84 47/85/85
s 9
f 50/86/86 49/87/87 13/88/88 1/89/89
s 5
f 73/90/90 76/91/91 303/62/62 302/61/61
s 10
f 39/92/92 50/93/93 1/94/94 40/95/95
s 5
f 299/59/59 301/64/64 304/63/63 300/60/60
s 7
f 45/77/77 53/73/73 52/74/74 38/78/78
s 8
f 44/96/96 53/97/97 45/83/83
f 43/98/98 44/96/96 45/83/83
f 42/99/99 43/98/98 45/83/83 41/100/100
s 9
f 50/86/86 55/101/101 54/102/102 49/87/87
s 10
f 55/103/103 50/93/93 39/92/92 56/104/104
f 56/104/104 39/92/92 38/105/105 57/106/106
f 58/107/107 57/106/106 38/105/105 52/108/108
f 59/109/109 58/107/107 52/108/108 37/110/110
f 60/111/111 59/109/109 37/110/110 36/112/112
f 61/113/113 60/111/111 36/112/112 35/114/114
f 34/115/115 62/116/116 61/113/113 35/114/114
s off
f 66/117/117 64/118/118 63/119/119 65/120/120
s 12
f 64/121/121 66/122/122 227/123/123 226/124/124
f 226/124/124 227/123/123 229/125/125 228/126/126
f 230/127/127 228/126/126 229/125/125 231/128/128
f 232/129/129 230/127/127 231/128/128 233/130/130
f 234/131/131 232/129/129 233/130/130 235/132/132
f 236/133/133 234/131/131 235/132/132 237/134/134
f 239/135/135 238/136/136 236/133/133 237/134/134
s off
f 72/137/137 70/138/138 69/139/139 71/140/140
s 13
f 70/141/141 72/142/142 266/143/143 264/144/144
f 264/144/144 266/143/143 267/145/145 265/146/146
f 261/147/147 265/146/146 267/145/145 268/148/148
f 259/149/149 261/147/147 268/148/148 269/150/150
f 257/151/151 259/149/149 269/150/150 270/152/152
f 255/153/153 257/151/151 270/152/152 271/154/154
f 272/155/155 253/156/156 255/153/153 271/154/154
s off
f 55/157/157 66/158/158 65/159/159 54/160/160
f 64/161/161 72/162/162 71/163/163 63/164/164
s 14
f 73/165/165 67/166/166 68/167/167 74/168/168
s off
f 70/169/169 76/170/170 75/171/171 69/172/172
s 2
f 77/173/173 19/174/174 82/175/175 78/176/176
f 79/177/177 78/176/176 82/175/175 83/178/178
f 84/179/179 80/180/180 79/177/177 83/178/178
f 81/181/181 80/180/180 84/179/179 85/182/182
f 6/23/23 81/181/181 85/182/182 12/24/24
s 10
f 19/183/183 77/184/184 1/94/94 87/185/185
f 87/185/185 1/94/94 7/186/186
s 16
f 88/187/187 14/188/188 252/189/189 274/190/190
f 89/191/191 88/187/187 274/190/190 276/192/192
f 90/193/193 89/191/191 276/192/192 278/194/194
f 119/195/195 90/193/193 278/194/194 280/196/196
s 17
f 284/197/197 116/198/198 91/199/199 281/200/200
s off
f 140/201/201 143/202/202 142/203/203 141/204/204
s 3
f 19/31/31 87/205/205 7/206/206 8/34/34
f 19/31/31 12/33/33 85/207/207
f 19/31/31 83/208/208 82/209/209
f 83/208/208 19/31/31 85/207/207 84/210/210
s 4
f 20/38/38 92/211/211 81/212/212 6/39/39
f 92/211/211 93/213/213 80/214/214 81/212/212
f 80/214/214 93/213/213 94/215/215 79/216/216
f 94/215/215 95/217/217 78/218/218 79/216/216
f 78/218/218 95/217/217 96/219/219 77/220/220
f 77/220/220 96/219/219 97/221/221 86/222/222
s 1
f 102/223/223 394/671/224 395/672/12 32/11/11
f 393/670/225 394/671/224 102/223/223 101/226/226
f 100/227/227 392/669/228 393/670/225 101/226/226
f 99/229/229 391/668/230 392/669/228 100/227/227
f 98/231/231 390/667/232 391/668/230 99/229/229
f 103/233/233 389/666/234 390/667/232 98/231/231
s 5
f 292/51/51 305/235/235 306/236/236 291/52/52
f 306/236/236 305/235/235 307/237/237 308/238/238
f 308/238/238 307/237/237 309/239/239 310/240/240
f 310/240/240 309/239/239 311/241/241 312/242/242
f 313/243/243 314/244/244 315/245/245 316/246/246
s 10
f 40/95/95 1/94/94 77/184/184 109/247/247
s 7
f 34/65/65 41/68/68 110/248/248 104/249/249
f 104/249/249 110/248/248 111/250/250 105/251/251
f 105/251/251 111/250/250 112/252/252 106/253/253
f 121/254/254 120/255/255 106/253/253 112/252/252
f 107/256/256 113/257/257 114/258/258 108/259/259
s off
f 108/260/260 114/261/261 115/262/262 109/263/263
f 47/264/264 40/265/265 109/266/266 115/267/267
s 8
f 114/268/268 113/269/269 47/85/85 115/270/270
f 113/269/269 45/83/83 47/85/85
s 17
f 135/271/271 116/198/198 284/197/197 134/272/272
s 18
f 86/273/273 117/274/274 118/275/275 77/276/276
s 5
f 143/277/277 140/278/278 316/246/246 315/245/245
s 10
f 118/279/279 108/280/280 109/247/247 77/184/184
s 16
f 281/281/281 91/282/282 119/195/195 280/196/196
s 5
f 312/242/242 311/241/241 314/244/244 313/243/243
s 7
f 113/257/257 107/256/256 120/255/255 121/254/254
s 8
f 121/283/283 45/83/83 113/269/269
f 112/284/284 45/83/83 121/283/283
f 111/285/285 45/83/83 112/284/284
f 110/286/286 41/100/100 45/83/83 111/285/285
s 18
f 123/287/287 118/275/275 117/274/274 122/288/288
s 10
f 118/279/279 123/289/289 124/290/290 108/280/280
f 125/291/291 107/292/292 108/280/280 124/290/290
f 126/293/293 120/294/294 107/292/292 125/291/291
f 127/295/295 106/296/296 120/294/294 126/293/293
f 128/297/297 105/298/298 106/296/296 127/295/295
f 129/299/299 104/300/300 105/298/298 128/297/297
f 34/115/115 104/300/300 129/299/299 62/116/116
s off
f 131/301/301 133/302/302 132/303/303 130/304/304
s 12
f 133/305/305 131/306/306 240/307/307 241/308/308
f 242/309/309 243/310/310 241/308/308 240/307/307
f 244/311/311 245/312/312 243/310/310 242/309/309
f 246/313/313 247/314/314 245/312/312 244/311/311
f 248/315/315 249/316/316 247/314/314 246/313/313
f 250/317/317 251/318/318 249/316/316 248/315/315
f 239/135/135 251/318/318 250/317/317 238/136/136
s off
f 137/319/319 139/320/320 138/321/321 136/322/322
s 13
f 139/323/323 137/324/324 283/325/325 285/326/326
f 282/327/327 286/328/328 285/326/326 283/325/325
f 279/329/329 287/330/330 286/328/328 282/327/327
f 277/331/331 288/332/332 287/330/330 279/329/329
f 275/333/333 289/334/334 288/332/332 277/331/331
f 273/335/335 290/336/336 289/334/334 275/333/333
f 272/155/155 290/336/336 273/335/335 253/156/156
s off
f 133/337/337 123/338/338 122/339/339 132/340/340
f 139/341/341 131/342/342 130/343/343 138/344/344
s 17
f 134/272/272 140/345/345 141/346/346 135/271/271
s off
f 143/347/347 137/348/348 136/349/349 142/350/350
s 21
f 185/351/351 327/352/352 328/353/353 188/354/354
f 186/355/355 189/356/356 190/357/357 187/358/358
f 189/356/356 191/359/359 192/360/360 190/357/357
f 191/359/359 193/361/361 194/362/362 192/360/360
f 193/361/361 195/363/363 196/364/364 194/362/362
f 195/363/363 197/365/365 198/366/366 196/364/364
f 326/367/367 199/368/368 200/369/369 325/370/370
f 188/354/354 328/353/353 329/371/371 202/372/372
f 187/358/358 190/357/357 203/373/373 201/374/374
f 190/357/357 192/360/360 204/375/375 203/373/373
f 192/360/360 194/362/362 205/376/376 204/375/375
f 194/362/362 196/364/364 206/377/377 205/376/376
f 196/364/364 198/366/366 207/378/378 206/377/377
f 325/370/370 200/369/369 208/379/379 324/380/380
f 202/372/372 329/371/371 330/381/381 210/382/382
f 201/374/374 203/373/373 211/383/383 209/384/384
f 203/373/373 204/375/375 212/385/385 211/383/383
f 204/375/375 205/376/376 213/386/386 212/385/385
f 205/376/376 206/377/377 214/387/387 213/386/386
f 206/377/377 207/378/378 215/388/388 214/387/387
f 324/380/380 208/379/379 216/389/389 323/390/390
f 218/391/391 210/382/382 330/381/381 331/392/392
f 209/384/384 211/383/383 219/393/393 217/394/394
f 211/383/383 212/385/385 220/395/395 219/393/393
f 212/385/385 213/386/386 221/396/396 220/395/395
f 221/396/396 213/386/386 214/387/387 222/397/397
f 214/387/387 215/388/388 223/398/398 222/397/397
f 322/399/399 323/390/390 216/389/389 224/400/400
f 186/355/355 327/352/352 185/351/351 225/401/401
f 189/356/356 186/355/355 225/401/401
f 191/359/359 189/356/356 225/401/401
f 193/361/361 191/359/359 225/401/401
f 195/363/363 193/361/361 225/401/401
f 197/365/365 195/363/363 225/401/401
f 199/368/368 326/367/367 197/365/365 225/401/401
s 24
f 144/402/402 152/403/403 335/404/404 336/405/405
f 145/406/406 153/407/407 154/408/408 146/409/409
f 146/409/409 154/408/408 155/410/410 147/411/411
f 147/411/411 155/410/410 156/412/412 148/413/413
f 148/413/413 156/412/412 157/414/414 149/415/415
f 149/415/415 157/414/414 158/416/416 150/417/417
f 317/418/418 318/419/419 159/420/420 151/421/421
f 152/403/403 160/422/422 334/423/423 335/404/404
f 153/407/407 161/424/424 162/425/425 154/408/408
f 154/408/408 162/425/425 163/426/426 155/410/410
f 155/410/410 163/426/426 164/427/427 156/412/412
f 156/412/412 164/427/427 165/428/428 157/414/414
f 157/414/414 165/428/428 166/429/429 158/416/416
f 318/419/419 319/430/430 167/431/431 159/420/420
f 160/422/422 168/432/432 333/433/433 334/423/423
f 161/424/424 169/434/434 170/435/435 162/425/425
f 162/425/425 170/435/435 171/436/436 163/426/426
f 163/426/426 171/436/436 172/437/437 164/427/427
f 164/427/427 172/437/437 173/438/438 165/428/428
f 165/428/428 173/438/438 174/439/439 166/429/429
f 319/430/430 320/440/440 175/441/441 167/431/431
f 332/442/442 333/433/433 168/432/432 176/443/443
f 170/435/435 169/434/434 177/444/444 178/445/445
f 171/436/436 170/435/435 178/445/445 179/446/446
f 172/437/437 171/436/436 179/446/446 180/447/447
f 173/438/438 172/437/437 180/447/447 181/448/448
f 174/439/439 173/438/438 181/448/448 182/449/449
f 183/450/450 175/441/441 320/440/440 321/451/451
f 336/405/405 184/452/452 144/402/402
f 146/409/409 184/452/452 145/406/406
f 147/411/411 184/452/452 146/409/409
f 148/413/413 184/452/452 147/411/411
f 149/415/415 184/452/452 148/413/413
f 150/417/417 184/452/452 149/415/415
f 317/418/418 184/452/452 150/417/417
s 25
f 152/453/453 144/454/454 185/455/455 188/456/456
f 151/457/457 159/458/458 200/459/459 199/460/460
f 160/461/461 152/453/453 188/456/456 202/462/462
f 159/458/458 167/463/463 208/464/464 200/459/459
f 168/465/465 160/461/461 202/462/462 210/466/466
f 167/463/463 175/467/467 216/468/468 208/464/464
s 27
f 331/469/469 332/470/470 176/471/471 218/472/472
s 25
f 168/465/465 210/466/466 218/473/473 176/474/474
s 27
f 178/475/475 177/476/476 217/477/477 219/478/478
f 179/479/479 178/475/475 219/478/478 220/480/480
f 180/481/481 179/479/479 220/480/480 221/482/482
f 181/483/483 180/481/481 221/482/482 222/484/484
f 223/485/485 182/486/486 181/483/483 222/484/484
s 25
f 216/468/468 175/467/467 183/487/487 224/488/488
s 27
f 224/489/489 183/490/490 321/491/491 322/492/492
s 25
f 144/454/454 184/493/493 225/494/494 185/455/455
f 184/493/493 151/457/457 199/460/460 225/494/494
s 28
f 66/495/495 55/496/496 56/497/497 227/498/498
f 227/498/498 56/497/497 57/499/499 229/500/500
f 57/499/499 58/501/501 231/502/502 229/500/500
f 58/501/501 59/503/503 233/504/504 231/502/502
f 59/503/503 60/505/505 235/506/506 233/504/504
f 60/505/505 61/507/507 237/508/508 235/506/506
f 61/507/507 62/509/509 239/510/510 237/508/508
f 123/511/511 133/512/512 241/513/513 124/514/514
f 243/515/515 125/516/516 124/514/514 241/513/513
f 126/517/517 125/516/516 243/515/515 245/518/518
f 127/519/519 126/517/517 245/518/518 247/520/520
f 128/521/521 127/519/519 247/520/520 249/522/522
f 129/523/523 128/521/521 249/522/522 251/524/524
f 62/509/509 129/523/523 251/524/524 239/510/510
s 16
f 15/525/525 254/526/526 252/189/189 14/188/188
f 16/527/527 256/528/528 254/526/526 15/525/525
f 17/529/529 258/530/530 256/528/528 16/527/527
f 51/531/531 260/532/532 258/530/530 17/529/529
s 14
f 48/533/533 263/534/534 262/535/535 18/536/536
f 67/166/166 263/534/534 48/533/533 68/167/167
s 16
f 18/537/537 262/538/538 260/532/532 51/531/531
s 30
f 72/539/539 64/540/540 226/541/541 266/542/542
f 266/542/542 226/541/541 228/543/543 267/544/544
f 228/543/543 230/545/545 268/546/546 267/544/544
f 230/545/545 232/547/547 269/548/548 268/546/546
f 232/547/547 234/549/549 270/550/550 269/548/548
f 234/549/549 236/551/551 271/552/552 270/550/550
f 236/551/551 238/553/553 272/554/554 271/552/552
f 131/555/555 139/556/556 285/557/557 240/558/558
f 286/559/559 242/560/560 240/558/558 285/557/557
f 244/561/561 242/560/560 286/559/559 287/562/562
f 246/563/563 244/561/561 287/562/562 288/564/564
f 248/565/565 246/563/563 288/564/564 289/566/566
f 250/567/567 248/565/565 289/566/566 290/568/568
f 238/553/553 250/567/567 290/568/568 272/554/554
s 16
f 252/189/189 254/526/526 293/569/569 291/570/570
s 32
f 255/571/571 253/572/572 292/573/573 294/574/574
s 16
f 254/526/526 256/528/528 295/575/575 293/569/569
s 32
f 257/576/576 255/571/571 294/574/574 296/577/577
s 16
f 256/528/528 258/530/530 297/578/578 295/575/575
s 32
f 259/579/579 257/576/576 296/577/577 298/580/580
s 16
f 258/530/530 260/532/532 299/581/581 297/578/578
s 32
f 261/582/582 259/579/579 298/580/580 300/583/583
s 14
f 263/534/534 302/584/584 301/585/585 262/535/535
s 32
f 303/586/586 264/587/587 265/588/588 304/589/589
s 14
f 67/166/166 73/165/165 302/584/584 263/534/534
s 32
f 76/590/590 70/591/591 264/587/587 303/586/586
s 16
f 260/532/532 262/538/538 301/592/592 299/581/581
s 32
f 265/588/588 261/582/582 300/583/583 304/589/589
f 253/572/572 273/593/593 305/594/594 292/573/573
s 16
f 274/190/190 252/189/189 291/570/570 306/595/595
s 32
f 273/593/593 275/596/596 307/597/597 305/594/594
s 16
f 276/192/192 274/190/190 306/595/595 308/598/598
s 32
f 275/596/596 277/599/599 309/600/600 307/597/597
s 16
f 278/194/194 276/192/192 308/598/598 310/601/601
s 32
f 277/599/599 279/602/602 311/603/603 309/600/600
s 16
f 280/196/196 278/194/194 310/601/601 312/604/604
s 32
f 314/605/605 282/606/606 283/607/607 315/608/608
s 17
f 281/200/200 313/609/609 316/610/610 284/197/197
s 32
f 137/611/611 143/612/612 315/608/608 283/607/607
s 17
f 140/345/345 134/272/272 284/197/197 316/610/610
s 32
f 279/602/602 282/606/606 314/605/605 311/603/603
s 16
f 281/281/281 280/196/196 312/604/604 313/613/613
s 24
f 150/417/417 158/416/416 318/419/419 317/418/418
f 158/416/416 166/429/429 319/430/430 318/419/419
f 166/429/429 174/439/439 320/440/440 319/430/430
f 320/440/440 174/439/439 182/449/449 321/451/451
s 27
f 321/491/491 182/486/486 223/485/485 322/492/492
s 21
f 223/398/398 215/388/388 323/390/390 322/399/399
f 207/378/378 324/380/380 323/390/390 215/388/388
f 198/366/366 325/370/370 324/380/380 207/378/378
f 197/365/365 326/367/367 325/370/370 198/366/366
f 327/352/352 186/355/355 187/358/358 328/353/353
f 329/371/371 328/353/353 187/358/358 201/374/374
f 330/381/381 329/371/371 201/374/374 209/384/384
f 330/381/381 209/384/384 217/394/394 331/392/392
s 27
f 217/477/477 177/476/476 332/470/470 331/469/469
s 24
f 177/444/444 169/434/434 333/433/433 332/442/442
f 334/423/423 333/433/433 169/434/434 161/424/424
f 335/404/404 334/423/423 161/424/424 153/407/407
f 336/405/405 335/404/404 153/407/407 145/406/406
f 151/421/421 184/452/452 317/418/418
f 145/406/406 184/452/452 336/405/405
s 1
f 337/614/614 97/234/615 96/232/616 338/615/617
f 339/616/618 338/615/617 96/232/616 95/230/619
f 340/617/620 339/616/618 95/230/619 94/228/621
f 341/618/622 340/617/620 94/228/621 93/225/623
f 93/225/623 92/224/624 342/619/625 341/618/622
f 343/620/626 342/619/625 92/224/624 20/12/627
f 344/621/628 343/620/626 20/12/627 21/10/629
f 345/622/630 344/621/628 21/10/629 22/8/631
f 23/6/632 346/623/633 345/622/630 22/8/631
f 347/624/634 346/623/633 23/6/632 24/3/635
f 348/625/636 347/624/634 24/3/635 25/4/637
f 26/25/638 349/626/639 348/625/636 25/4/637
f 350/627/640 337/614/614 338/615/617 351/628/641
f 352/629/642 351/628/641 338/615/617 339/616/618
f 353/630/643 352/629/642 339/616/618 340/617/620
f 354/631/644 353/630/643 340/617/620 341/618/622
f 341/618/622 342/619/625 355/632/645 354/631/644
f 356/633/646 355/632/645 342/619/625 343/620/626
f 357/634/647 356/633/646 343/620/626 344/621/628
f 358/635/648 357/634/647 344/621/628 345/622/630
f 346/623/633 359/636/649 358/635/648 345/622/630
f 360/637/650 359/636/649 346/623/633 347/624/634
f 361/638/651 360/637/650 347/624/634 348/625/636
f 349/626/639 362/639/652 361/638/651 348/625/636
f 363/640/653 402/679/654 403/680/655 364/641/656
f 365/642/657 364/641/656 403/680/655 404/681/658
f 366/643/659 365/642/657 404/681/658 405/682/660
f 367/644/661 366/643/659 405/682/660 406/683/662
f 406/683/662 407/684/663 368/645/664 367/644/661
f 369/646/665 368/645/664 407/684/663 408/685/666
f 370/647/667 369/646/665 408/685/666 409/686/668
f 371/648/669 370/647/667 409/686/668 410/687/670
f 411/688/671 372/649/672 371/648/669 410/687/670
f 373/650/673 372/649/672 411/688/671 412/689/674
f 374/651/675 373/650/673 412/689/674 413/690/676
f 414/691/677 375/652/678 374/651/675 413/690/676
f 376/653/679 363/640/653 364/641/656 377/654/680
f 378/655/681 377/654/680 364/641/656 365/642/657
f 379/656/682 378/655/681 365/642/657 366/643/659
f 380/657/683 379/656/682 366/643/659 367/644/661
f 367/644/661 368/645/664 381/658/684 380/657/683
f 382/659/685 381/658/684 368/645/664 369/646/665
f 383/660/686 382/659/685 369/646/665 370/647/667
f 384/661/687 383/660/686 370/647/667 371/648/669
f 372/649/672 385/662/688 384/661/687 371/648/669
f 386/663/689 385/662/688 372/649/672 373/650/673
f 387/664/690 386/663/689 373/650/673 374/651/675
f 375/652/678 388/665/691 387/664/690 374/651/675
f 389/666/234 376/653/679 377/654/680 390/667/232
f 391/668/230 390/667/232 377/654/680 378/655/681
f 392/669/228 391/668/230 378/655/681 379/656/682
f 393/670/225 392/669/228 379/656/682 380/657/683
f 380/657/683 381/658/684 394/671/224 393/670/225
f 395/672/12 394/671/224 381/658/684 382/659/685
f 396/673/10 395/672/12 382/659/685 383/660/686
f 397/674/8 396/673/10 383/660/686 384/661/687
f 385/662/688 398/675/6 397/674/8 384/661/687
f 399/676/3 398/675/6 385/662/688 386/663/689
f 400/677/4 399/676/3 386/663/689 387/664/690
f 388/665/691 401/678/25 400/677/4 387/664/690
f 402/679/654 350/627/640 351/628/641 403/680/655
f 404/681/658 403/680/655 351/628/641 352/629/642
f 405/682/660 404/681/658 352/629/642 353/630/643
f 406/683/662 405/682/660 353/630/643 354/631/644
f 354/631/644 355/632/645 407/684/663 406/683/662
f 408/685/666 407/684/663 355/632/645 356/633/646
f 409/686/668 408/685/666 356/633/646 357/634/647
f 410/687/670 409/686/668 357/634/647 358/635/648
f 359/636/649 411/688/671 410/687/670 358/635/648
f 412/689/674 411/688/671 359/636/649 360/637/650
f 413/690/676 412/689/674 360/637/650 361/638/651
f 362/639/652 414/691/677 413/690/676 361/638/651
